<svg xmlns="http://www.w3.org/2000/svg" width="1500" height="520" viewBox="0 0 1500 520">
  <defs>
    <marker id="arrow" viewBox="0 0 10 10" refX="9" refY="5" markerWidth="8" markerHeight="8" orient="auto-start-reverse">
      <path d="M 0 0 L 10 5 L 0 10 z" fill="#7c3aed"/>
    </marker>
  </defs>
  <rect width="1500" height="520" fill="#fffdf8"/>
  <text x="40" y="40" text-anchor="start" font-family="Georgia" font-size="28" fill="#111827">L=3 Polyphase / FFA FIR</text><text x="40" y="66" font-family="Consolas" font-size="15" fill="#374151">mult=132 add=261 reg=393 latency=47 spc=3</text><rect x="60" y="120" width="90" height="40" rx="10" fill="#eef2ff" stroke="#1f2937" stroke-width="2"/><text x="105.0" y="146.0" text-anchor="middle" font-family="Georgia" font-size="16" font-weight="normal"><tspan x="105.0" dy="0">x0[m]</tspan></text><circle cx="260" cy="140" r="24" fill="#fef3c7" stroke="#1f2937" stroke-width="2"/><text x="260" y="144.66666666666666" text-anchor="middle" font-family="Georgia" font-size="20" font-weight="bold">×</text><text x="278" y="106" text-anchor="start" font-family="Georgia" font-size="14" fill="#16a34a">E0[k]</text><circle cx="430" cy="140" r="22" fill="#fee2e2" stroke="#1f2937" stroke-width="2"/><text x="430" y="144.66666666666666" text-anchor="middle" font-family="Georgia" font-size="20" font-weight="bold">+</text><rect x="520" y="118" width="90" height="44" rx="10" fill="#ddd6fe" stroke="#1f2937" stroke-width="2"/><text x="565.0" y="146.0" text-anchor="middle" font-family="Georgia" font-size="16" font-weight="normal"><tspan x="565.0" dy="0">branch</tspan></text><line x1="150" y1="140" x2="236" y2="140" stroke="#7c3aed" stroke-width="2.5" marker-end="url(#arrow)"/><line x1="284" y1="140" x2="408" y2="140" stroke="#7c3aed" stroke-width="2.5" marker-end="url(#arrow)"/><line x1="452" y1="140" x2="520" y2="140" stroke="#7c3aed" stroke-width="2.5" marker-end="url(#arrow)"/><rect x="60" y="220" width="90" height="40" rx="10" fill="#eef2ff" stroke="#1f2937" stroke-width="2"/><text x="105.0" y="246.0" text-anchor="middle" font-family="Georgia" font-size="16" font-weight="normal"><tspan x="105.0" dy="0">x1[m]</tspan></text><circle cx="260" cy="240" r="24" fill="#fef3c7" stroke="#1f2937" stroke-width="2"/><text x="260" y="244.66666666666666" text-anchor="middle" font-family="Georgia" font-size="20" font-weight="bold">×</text><text x="278" y="206" text-anchor="start" font-family="Georgia" font-size="14" fill="#16a34a">E1[k]</text><circle cx="430" cy="240" r="22" fill="#fee2e2" stroke="#1f2937" stroke-width="2"/><text x="430" y="244.66666666666666" text-anchor="middle" font-family="Georgia" font-size="20" font-weight="bold">+</text><rect x="520" y="218" width="90" height="44" rx="10" fill="#ddd6fe" stroke="#1f2937" stroke-width="2"/><text x="565.0" y="246.0" text-anchor="middle" font-family="Georgia" font-size="16" font-weight="normal"><tspan x="565.0" dy="0">branch</tspan></text><line x1="150" y1="240" x2="236" y2="240" stroke="#7c3aed" stroke-width="2.5" marker-end="url(#arrow)"/><line x1="284" y1="240" x2="408" y2="240" stroke="#7c3aed" stroke-width="2.5" marker-end="url(#arrow)"/><line x1="452" y1="240" x2="520" y2="240" stroke="#7c3aed" stroke-width="2.5" marker-end="url(#arrow)"/><rect x="60" y="320" width="90" height="40" rx="10" fill="#eef2ff" stroke="#1f2937" stroke-width="2"/><text x="105.0" y="346.0" text-anchor="middle" font-family="Georgia" font-size="16" font-weight="normal"><tspan x="105.0" dy="0">x2[m]</tspan></text><circle cx="260" cy="340" r="24" fill="#fef3c7" stroke="#1f2937" stroke-width="2"/><text x="260" y="344.6666666666667" text-anchor="middle" font-family="Georgia" font-size="20" font-weight="bold">×</text><text x="278" y="306" text-anchor="start" font-family="Georgia" font-size="14" fill="#16a34a">E2[k]</text><circle cx="430" cy="340" r="22" fill="#fee2e2" stroke="#1f2937" stroke-width="2"/><text x="430" y="344.6666666666667" text-anchor="middle" font-family="Georgia" font-size="20" font-weight="bold">+</text><rect x="520" y="318" width="90" height="44" rx="10" fill="#ddd6fe" stroke="#1f2937" stroke-width="2"/><text x="565.0" y="346.0" text-anchor="middle" font-family="Georgia" font-size="16" font-weight="normal"><tspan x="565.0" dy="0">branch</tspan></text><line x1="150" y1="340" x2="236" y2="340" stroke="#7c3aed" stroke-width="2.5" marker-end="url(#arrow)"/><line x1="284" y1="340" x2="408" y2="340" stroke="#7c3aed" stroke-width="2.5" marker-end="url(#arrow)"/><line x1="452" y1="340" x2="520" y2="340" stroke="#7c3aed" stroke-width="2.5" marker-end="url(#arrow)"/><circle cx="860" cy="150" r="22" fill="#fee2e2" stroke="#1f2937" stroke-width="2"/><text x="860" y="154.66666666666666" text-anchor="middle" font-family="Georgia" font-size="20" font-weight="bold">+</text><circle cx="860" cy="240" r="22" fill="#fee2e2" stroke="#1f2937" stroke-width="2"/><text x="860" y="244.66666666666666" text-anchor="middle" font-family="Georgia" font-size="20" font-weight="bold">+</text><circle cx="860" cy="330" r="22" fill="#fee2e2" stroke="#1f2937" stroke-width="2"/><text x="860" y="334.6666666666667" text-anchor="middle" font-family="Georgia" font-size="20" font-weight="bold">+</text><rect x="950" y="128" width="120" height="44" rx="10" fill="#ede9fe" stroke="#1f2937" stroke-width="2"/><text x="1010.0" y="156.0" text-anchor="middle" font-family="Georgia" font-size="16" font-weight="normal"><tspan x="1010.0" dy="0">y0 recombine</tspan></text><rect x="950" y="218" width="120" height="44" rx="10" fill="#ede9fe" stroke="#1f2937" stroke-width="2"/><text x="1010.0" y="246.0" text-anchor="middle" font-family="Georgia" font-size="16" font-weight="normal"><tspan x="1010.0" dy="0">y1 recombine</tspan></text><rect x="950" y="308" width="120" height="44" rx="10" fill="#ede9fe" stroke="#1f2937" stroke-width="2"/><text x="1010.0" y="336.0" text-anchor="middle" font-family="Georgia" font-size="16" font-weight="normal"><tspan x="1010.0" dy="0">y2 recombine</tspan></text><rect x="1140" y="218" width="130" height="52" rx="10" fill="#fee2e2" stroke="#1f2937" stroke-width="2"/><text x="1205.0" y="250.0" text-anchor="middle" font-family="Georgia" font-size="16" font-weight="normal"><tspan x="1205.0" dy="0">shared FFA core</tspan></text><rect x="1330" y="218" width="100" height="52" rx="10" fill="#eef2ff" stroke="#1f2937" stroke-width="2"/><text x="1380.0" y="250.0" text-anchor="middle" font-family="Georgia" font-size="16" font-weight="normal"><tspan x="1380.0" dy="0">3-lane out</tspan></text><text x="710" y="108" text-anchor="middle" font-family="Georgia" font-size="14" fill="#111827">cross-branch recombination matrix</text><line x1="610" y1="140" x2="730" y2="140" stroke="#7c3aed" stroke-width="2.5"/><line x1="610" y1="240" x2="730" y2="240" stroke="#7c3aed" stroke-width="2.5"/><line x1="610" y1="340" x2="730" y2="340" stroke="#7c3aed" stroke-width="2.5"/><line x1="730" y1="140" x2="730" y2="150" stroke="#6b7280" stroke-width="1.8"/><line x1="730" y1="240" x2="730" y2="240" stroke="#6b7280" stroke-width="1.8"/><line x1="730" y1="340" x2="730" y2="330" stroke="#6b7280" stroke-width="1.8"/><line x1="730" y1="150" x2="838" y2="150" stroke="#7c3aed" stroke-width="2.5" marker-end="url(#arrow)"/><line x1="730" y1="240" x2="838" y2="240" stroke="#7c3aed" stroke-width="2.5" marker-end="url(#arrow)"/><line x1="730" y1="330" x2="838" y2="330" stroke="#7c3aed" stroke-width="2.5" marker-end="url(#arrow)"/><line x1="610" y1="240" x2="780" y2="150" stroke="#2563eb" stroke-width="1.8" stroke-dasharray="7 5"/><line x1="610" y1="340" x2="800" y2="150" stroke="#dc2626" stroke-width="1.8" stroke-dasharray="7 5"/><line x1="610" y1="140" x2="790" y2="240" stroke="#059669" stroke-width="1.8" stroke-dasharray="7 5"/><line x1="610" y1="340" x2="790" y2="240" stroke="#d97706" stroke-width="1.8" stroke-dasharray="7 5"/><line x1="610" y1="140" x2="800" y2="330" stroke="#7c3aed" stroke-width="1.8" stroke-dasharray="7 5"/><line x1="610" y1="240" x2="780" y2="330" stroke="#db2777" stroke-width="1.8" stroke-dasharray="7 5"/><line x1="882" y1="150" x2="950" y2="150" stroke="#7c3aed" stroke-width="2.5" marker-end="url(#arrow)"/><line x1="882" y1="240" x2="950" y2="240" stroke="#7c3aed" stroke-width="2.5" marker-end="url(#arrow)"/><line x1="882" y1="330" x2="950" y2="330" stroke="#7c3aed" stroke-width="2.5" marker-end="url(#arrow)"/><line x1="1070" y1="150" x2="1140" y2="244" stroke="#7c3aed" stroke-width="2.5" marker-end="url(#arrow)"/><line x1="1070" y1="240" x2="1140" y2="244" stroke="#7c3aed" stroke-width="2.5" marker-end="url(#arrow)"/><line x1="1070" y1="330" x2="1140" y2="244" stroke="#7c3aed" stroke-width="2.5" marker-end="url(#arrow)"/><line x1="1270" y1="244" x2="1330" y2="244" stroke="#7c3aed" stroke-width="2.5" marker-end="url(#arrow)"/><text x="40" y="468" font-family="Consolas" font-size="15" fill="#374151">critical path: one polyphase branch plus shared FFA recombine</text><text x="40" y="492" font-family="Consolas" font-size="15" fill="#374151">L3 polyphase / FFA: three branches feed one shared recombination core with cross-branch mixing</text>
</svg>
