<svg xmlns="http://www.w3.org/2000/svg" width="1320" height="430" viewBox="0 0 1320 430">
  <defs>
    <marker id="arrow" viewBox="0 0 10 10" refX="9" refY="5" markerWidth="8" markerHeight="8" orient="auto-start-reverse">
      <path d="M 0 0 L 10 5 L 0 10 z" fill="#7c3aed"/>
    </marker>
  </defs>
  <rect width="1320" height="430" fill="#fffdf8"/>
  <text x="40" y="40" text-anchor="start" font-family="Georgia" font-size="28" fill="#111827">Direct-Form FIR</text><text x="40" y="66" font-family="Consolas" font-size="15" fill="#374151">mult=261 add=260 reg=260 latency=1 spc=1</text><rect x="55" y="98" width="90" height="46" rx="10" fill="#eef2ff" stroke="#1f2937" stroke-width="2"/><text x="100.0" y="127.0" text-anchor="middle" font-family="Georgia" font-size="16" font-weight="normal"><tspan x="100.0" dy="0">x[n]</tspan></text><rect x="230" y="98" width="60" height="46" rx="10" fill="#f7f3eb" stroke="#1f2937" stroke-width="2"/><text x="260.0" y="127.0" text-anchor="middle" font-family="Georgia" font-size="16" font-weight="normal"><tspan x="260.0" dy="0">z⁻¹</tspan></text><rect x="390" y="98" width="60" height="46" rx="10" fill="#f7f3eb" stroke="#1f2937" stroke-width="2"/><text x="420.0" y="127.0" text-anchor="middle" font-family="Georgia" font-size="16" font-weight="normal"><tspan x="420.0" dy="0">z⁻¹</tspan></text><rect x="790" y="98" width="60" height="46" rx="10" fill="#f7f3eb" stroke="#1f2937" stroke-width="2"/><text x="820.0" y="127.0" text-anchor="middle" font-family="Georgia" font-size="16" font-weight="normal"><tspan x="820.0" dy="0">z⁻¹</tspan></text><text x="620" y="126" text-anchor="middle" font-family="Georgia" font-size="30" fill="#111827">⋯</text><line x1="145" y1="121" x2="230" y2="121" stroke="#7c3aed" stroke-width="2.5" marker-end="url(#arrow)"/><line x1="290" y1="121" x2="390" y2="121" stroke="#7c3aed" stroke-width="2.5" marker-end="url(#arrow)"/><line x1="450" y1="121" x2="590" y2="121" stroke="#7c3aed" stroke-width="2.5" marker-end="url(#arrow)"/><line x1="650" y1="121" x2="790" y2="121" stroke="#7c3aed" stroke-width="2.5" marker-end="url(#arrow)"/><line x1="100" y1="144" x2="100" y2="200" stroke="#6b7280" stroke-width="1.8"/><text x="118" y="158" text-anchor="start" font-family="Georgia" font-size="14" fill="#111827">x[n]</text><circle cx="100" cy="228" r="24" fill="#fef3c7" stroke="#1f2937" stroke-width="2"/><text x="100" y="232.66666666666666" text-anchor="middle" font-family="Georgia" font-size="20" font-weight="bold">×</text><text x="118" y="182" text-anchor="start" font-family="Georgia" font-size="14" fill="#16a34a">h[0]</text><line x1="260" y1="144" x2="260" y2="200" stroke="#6b7280" stroke-width="1.8"/><text x="278" y="158" text-anchor="start" font-family="Georgia" font-size="14" fill="#111827">x[n-1]</text><circle cx="260" cy="228" r="24" fill="#fef3c7" stroke="#1f2937" stroke-width="2"/><text x="260" y="232.66666666666666" text-anchor="middle" font-family="Georgia" font-size="20" font-weight="bold">×</text><text x="278" y="182" text-anchor="start" font-family="Georgia" font-size="14" fill="#16a34a">h[1]</text><line x1="420" y1="144" x2="420" y2="200" stroke="#6b7280" stroke-width="1.8"/><text x="438" y="158" text-anchor="start" font-family="Georgia" font-size="14" fill="#111827">x[n-2]</text><circle cx="420" cy="228" r="24" fill="#fef3c7" stroke="#1f2937" stroke-width="2"/><text x="420" y="232.66666666666666" text-anchor="middle" font-family="Georgia" font-size="20" font-weight="bold">×</text><text x="438" y="182" text-anchor="start" font-family="Georgia" font-size="14" fill="#16a34a">h[2]</text><line x1="620" y1="144" x2="620" y2="200" stroke="#6b7280" stroke-width="1.8"/><text x="638" y="158" text-anchor="start" font-family="Georgia" font-size="14" fill="#111827">⋯</text><circle cx="620" cy="228" r="24" fill="#fef3c7" stroke="#1f2937" stroke-width="2"/><text x="620" y="232.66666666666666" text-anchor="middle" font-family="Georgia" font-size="20" font-weight="bold">×</text><text x="638" y="182" text-anchor="start" font-family="Georgia" font-size="14" fill="#16a34a">⋯</text><line x1="820" y1="144" x2="820" y2="200" stroke="#6b7280" stroke-width="1.8"/><text x="838" y="158" text-anchor="start" font-family="Georgia" font-size="14" fill="#111827">x[n-(N-1)]</text><circle cx="820" cy="228" r="24" fill="#fef3c7" stroke="#1f2937" stroke-width="2"/><text x="820" y="232.66666666666666" text-anchor="middle" font-family="Georgia" font-size="20" font-weight="bold">×</text><text x="838" y="182" text-anchor="start" font-family="Georgia" font-size="14" fill="#16a34a">h[N-1]</text><circle cx="260" cy="330" r="22" fill="#fee2e2" stroke="#1f2937" stroke-width="2"/><text x="260" y="334.6666666666667" text-anchor="middle" font-family="Georgia" font-size="20" font-weight="bold">+</text><circle cx="420" cy="330" r="22" fill="#fee2e2" stroke="#1f2937" stroke-width="2"/><text x="420" y="334.6666666666667" text-anchor="middle" font-family="Georgia" font-size="20" font-weight="bold">+</text><circle cx="620" cy="330" r="22" fill="#fee2e2" stroke="#1f2937" stroke-width="2"/><text x="620" y="334.6666666666667" text-anchor="middle" font-family="Georgia" font-size="20" font-weight="bold">+</text><circle cx="820" cy="330" r="22" fill="#fee2e2" stroke="#1f2937" stroke-width="2"/><text x="820" y="334.6666666666667" text-anchor="middle" font-family="Georgia" font-size="20" font-weight="bold">+</text><line x1="100" y1="252" x2="100" y2="330" stroke="#6b7280" stroke-width="1.8"/><polyline fill="none" points="100,330 238,330" stroke="#7c3aed" stroke-width="2.5" marker-end="url(#arrow)"/><line x1="260" y1="252" x2="260" y2="308" stroke="#6b7280" stroke-width="1.8"/><polyline fill="none" points="282,330 398,330" stroke="#7c3aed" stroke-width="2.5" marker-end="url(#arrow)"/><line x1="420" y1="252" x2="420" y2="308" stroke="#6b7280" stroke-width="1.8"/><polyline fill="none" points="442,330 598,330" stroke="#7c3aed" stroke-width="2.5" marker-end="url(#arrow)"/><line x1="620" y1="252" x2="620" y2="308" stroke="#6b7280" stroke-width="1.8"/><polyline fill="none" points="642,330 798,330" stroke="#7c3aed" stroke-width="2.5" marker-end="url(#arrow)"/><line x1="820" y1="252" x2="820" y2="308" stroke="#6b7280" stroke-width="1.8"/><rect x="930" y="304" width="120" height="52" rx="10" fill="#ede9fe" stroke="#1f2937" stroke-width="2"/><text x="990.0" y="336.0" text-anchor="middle" font-family="Georgia" font-size="16" font-weight="normal"><tspan x="990.0" dy="0">round / sat</tspan></text><rect x="1115" y="304" width="90" height="52" rx="10" fill="#eef2ff" stroke="#1f2937" stroke-width="2"/><text x="1160.0" y="336.0" text-anchor="middle" font-family="Georgia" font-size="16" font-weight="normal"><tspan x="1160.0" dy="0">y[n]</tspan></text><line x1="842" y1="330" x2="930" y2="330" stroke="#7c3aed" stroke-width="2.5" marker-end="url(#arrow)"/><line x1="1050" y1="330" x2="1115" y2="330" stroke="#7c3aed" stroke-width="2.5" marker-end="url(#arrow)"/><text x="40" y="388" font-family="Consolas" font-size="15" fill="#374151">critical path: tap multiplier plus full-width accumulation</text><text x="40" y="412" font-family="Consolas" font-size="15" fill="#374151">direct form: every tap owns its own multiplier; delay chain fans out to all taps</text>
</svg>
