<svg xmlns="http://www.w3.org/2000/svg" width="1450" height="470" viewBox="0 0 1450 470">
  <defs>
    <marker id="arrow" viewBox="0 0 10 10" refX="9" refY="5" markerWidth="8" markerHeight="8" orient="auto-start-reverse">
      <path d="M 0 0 L 10 5 L 0 10 z" fill="#7c3aed"/>
    </marker>
  </defs>
  <rect width="1450" height="470" fill="#fffdf8"/>
  <text x="40" y="40" text-anchor="start" font-family="Georgia" font-size="28" fill="#111827">L=2 Polyphase FIR</text><text x="40" y="66" font-family="Consolas" font-size="15" fill="#374151">mult=131 add=260 reg=392 latency=68 spc=2</text><rect x="60" y="110" width="90" height="40" rx="10" fill="#eef2ff" stroke="#1f2937" stroke-width="2"/><text x="105.0" y="136.0" text-anchor="middle" font-family="Georgia" font-size="16" font-weight="normal"><tspan x="105.0" dy="0">x0[m]</tspan></text><rect x="60" y="250" width="90" height="40" rx="10" fill="#eef2ff" stroke="#1f2937" stroke-width="2"/><text x="105.0" y="276.0" text-anchor="middle" font-family="Georgia" font-size="16" font-weight="normal"><tspan x="105.0" dy="0">x1[m]</tspan></text><circle cx="250" cy="150" r="24" fill="#fef3c7" stroke="#1f2937" stroke-width="2"/><text x="250" y="154.66666666666666" text-anchor="middle" font-family="Georgia" font-size="20" font-weight="bold">×</text><text x="268" y="116" text-anchor="start" font-family="Georgia" font-size="14" fill="#16a34a">E0[k]</text><circle cx="430" cy="150" r="22" fill="#fee2e2" stroke="#1f2937" stroke-width="2"/><text x="430" y="154.66666666666666" text-anchor="middle" font-family="Georgia" font-size="20" font-weight="bold">+</text><rect x="520" y="128" width="90" height="44" rx="10" fill="#ddd6fe" stroke="#1f2937" stroke-width="2"/><text x="565.0" y="156.0" text-anchor="middle" font-family="Georgia" font-size="16" font-weight="normal"><tspan x="565.0" dy="0">E0 acc</tspan></text><circle cx="250" cy="290" r="24" fill="#fde68a" stroke="#1f2937" stroke-width="2"/><text x="250" y="294.6666666666667" text-anchor="middle" font-family="Georgia" font-size="20" font-weight="bold">×</text><text x="268" y="256" text-anchor="start" font-family="Georgia" font-size="14" fill="#16a34a">E1[k]</text><circle cx="430" cy="290" r="22" fill="#fee2e2" stroke="#1f2937" stroke-width="2"/><text x="430" y="294.6666666666667" text-anchor="middle" font-family="Georgia" font-size="20" font-weight="bold">+</text><rect x="520" y="268" width="90" height="44" rx="10" fill="#ddd6fe" stroke="#1f2937" stroke-width="2"/><text x="565.0" y="296.0" text-anchor="middle" font-family="Georgia" font-size="16" font-weight="normal"><tspan x="565.0" dy="0">E1 acc</tspan></text><circle cx="830" cy="180" r="22" fill="#fee2e2" stroke="#1f2937" stroke-width="2"/><text x="830" y="184.66666666666666" text-anchor="middle" font-family="Georgia" font-size="20" font-weight="bold">+</text><circle cx="830" cy="260" r="22" fill="#fee2e2" stroke="#1f2937" stroke-width="2"/><text x="830" y="264.6666666666667" text-anchor="middle" font-family="Georgia" font-size="20" font-weight="bold">+</text><rect x="920" y="160" width="120" height="44" rx="10" fill="#ede9fe" stroke="#1f2937" stroke-width="2"/><text x="980.0" y="188.0" text-anchor="middle" font-family="Georgia" font-size="16" font-weight="normal"><tspan x="980.0" dy="0">lane0 / y0</tspan></text><rect x="920" y="240" width="120" height="44" rx="10" fill="#ede9fe" stroke="#1f2937" stroke-width="2"/><text x="980.0" y="268.0" text-anchor="middle" font-family="Georgia" font-size="16" font-weight="normal"><tspan x="980.0" dy="0">lane1 / y1</tspan></text><rect x="1100" y="188" width="110" height="52" rx="10" fill="#ede9fe" stroke="#1f2937" stroke-width="2"/><text x="1155.0" y="220.0" text-anchor="middle" font-family="Georgia" font-size="16" font-weight="normal"><tspan x="1155.0" dy="0">round / sat</tspan></text><rect x="1260" y="188" width="100" height="52" rx="10" fill="#eef2ff" stroke="#1f2937" stroke-width="2"/><text x="1310.0" y="220.0" text-anchor="middle" font-family="Georgia" font-size="16" font-weight="normal"><tspan x="1310.0" dy="0">2-lane out</tspan></text><line x1="150" y1="130" x2="226" y2="150" stroke="#7c3aed" stroke-width="2.5" marker-end="url(#arrow)"/><line x1="150" y1="270" x2="226" y2="290" stroke="#7c3aed" stroke-width="2.5" marker-end="url(#arrow)"/><line x1="274" y1="150" x2="408" y2="150" stroke="#7c3aed" stroke-width="2.5" marker-end="url(#arrow)"/><line x1="452" y1="150" x2="520" y2="150" stroke="#7c3aed" stroke-width="2.5" marker-end="url(#arrow)"/><line x1="274" y1="290" x2="408" y2="290" stroke="#7c3aed" stroke-width="2.5" marker-end="url(#arrow)"/><line x1="452" y1="290" x2="520" y2="290" stroke="#7c3aed" stroke-width="2.5" marker-end="url(#arrow)"/><text x="700" y="116" text-anchor="middle" font-family="Georgia" font-size="14" fill="#111827">delay E1 branch by one sample for y0</text><line x1="610" y1="150" x2="700" y2="150" stroke="#7c3aed" stroke-width="2.5"/><line x1="610" y1="290" x2="700" y2="290" stroke="#7c3aed" stroke-width="2.5"/><line x1="700" y1="290" x2="700" y2="180" stroke="#6b7280" stroke-width="1.8" stroke-dasharray="7 5"/><line x1="700" y1="180" x2="808" y2="180" stroke="#7c3aed" stroke-width="2.5" marker-end="url(#arrow)"/><line x1="610" y1="150" x2="808" y2="180" stroke="#7c3aed" stroke-width="2.5" marker-end="url(#arrow)"/><line x1="610" y1="290" x2="808" y2="260" stroke="#7c3aed" stroke-width="2.5" marker-end="url(#arrow)"/><line x1="700" y1="150" x2="808" y2="260" stroke="#7c3aed" stroke-width="2.5" marker-end="url(#arrow)"/><line x1="852" y1="180" x2="920" y2="180" stroke="#7c3aed" stroke-width="2.5" marker-end="url(#arrow)"/><line x1="852" y1="260" x2="920" y2="260" stroke="#7c3aed" stroke-width="2.5" marker-end="url(#arrow)"/><line x1="1040" y1="202" x2="1100" y2="214" stroke="#7c3aed" stroke-width="2.5" marker-end="url(#arrow)"/><line x1="1040" y1="262" x2="1100" y2="214" stroke="#7c3aed" stroke-width="2.5" marker-end="url(#arrow)"/><line x1="1210" y1="214" x2="1260" y2="214" stroke="#7c3aed" stroke-width="2.5" marker-end="url(#arrow)"/><text x="40" y="418" font-family="Consolas" font-size="15" fill="#374151">critical path: one polyphase branch plus lane recombine</text><text x="40" y="442" font-family="Consolas" font-size="15" fill="#374151">L2 polyphase: E0 and E1 compute in parallel, then recombine into y0 and y1</text>
</svg>
