<svg xmlns="http://www.w3.org/2000/svg" width="1560" height="540" viewBox="0 0 1560 540">
  <defs>
    <marker id="arrow" viewBox="0 0 10 10" refX="9" refY="5" markerWidth="8" markerHeight="8" orient="auto-start-reverse">
      <path d="M 0 0 L 10 5 L 0 10 z" fill="#7c3aed"/>
    </marker>
  </defs>
  <rect width="1560" height="540" fill="#fffdf8"/>
  <text x="40" y="40" text-anchor="start" font-family="Georgia" font-size="28" fill="#111827">L=3 + Pipeline FIR</text><text x="40" y="66" font-family="Consolas" font-size="15" fill="#374151">mult=132 add=261 reg=525 latency=50 spc=3</text><rect x="60" y="130" width="90" height="40" rx="10" fill="#eef2ff" stroke="#1f2937" stroke-width="2"/><text x="105.0" y="156.0" text-anchor="middle" font-family="Georgia" font-size="16" font-weight="normal"><tspan x="105.0" dy="0">x0[m]</tspan></text><circle cx="250" cy="150" r="24" fill="#fef3c7" stroke="#1f2937" stroke-width="2"/><text x="250" y="154.66666666666666" text-anchor="middle" font-family="Georgia" font-size="20" font-weight="bold">×</text><text x="268" y="116" text-anchor="start" font-family="Georgia" font-size="14" fill="#16a34a">E0[k]</text><rect x="340" y="128" width="70" height="44" rx="10" fill="#ddd6fe" stroke="#1f2937" stroke-width="2"/><text x="375.0" y="156.0" text-anchor="middle" font-family="Georgia" font-size="16" font-weight="normal"><tspan x="375.0" dy="0">reg</tspan></text><circle cx="500" cy="150" r="22" fill="#fee2e2" stroke="#1f2937" stroke-width="2"/><text x="500" y="154.66666666666666" text-anchor="middle" font-family="Georgia" font-size="20" font-weight="bold">+</text><rect x="590" y="128" width="70" height="44" rx="10" fill="#ddd6fe" stroke="#1f2937" stroke-width="2"/><text x="625.0" y="156.0" text-anchor="middle" font-family="Georgia" font-size="16" font-weight="normal"><tspan x="625.0" dy="0">reg</tspan></text><line x1="150" y1="150" x2="226" y2="150" stroke="#7c3aed" stroke-width="2.5" marker-end="url(#arrow)"/><line x1="274" y1="150" x2="340" y2="150" stroke="#7c3aed" stroke-width="2.5" marker-end="url(#arrow)"/><line x1="410" y1="150" x2="478" y2="150" stroke="#7c3aed" stroke-width="2.5" marker-end="url(#arrow)"/><line x1="522" y1="150" x2="590" y2="150" stroke="#7c3aed" stroke-width="2.5" marker-end="url(#arrow)"/><rect x="60" y="230" width="90" height="40" rx="10" fill="#eef2ff" stroke="#1f2937" stroke-width="2"/><text x="105.0" y="256.0" text-anchor="middle" font-family="Georgia" font-size="16" font-weight="normal"><tspan x="105.0" dy="0">x1[m]</tspan></text><circle cx="250" cy="250" r="24" fill="#fef3c7" stroke="#1f2937" stroke-width="2"/><text x="250" y="254.66666666666669" text-anchor="middle" font-family="Georgia" font-size="20" font-weight="bold">×</text><text x="268" y="216" text-anchor="start" font-family="Georgia" font-size="14" fill="#16a34a">E1[k]</text><rect x="340" y="228" width="70" height="44" rx="10" fill="#ddd6fe" stroke="#1f2937" stroke-width="2"/><text x="375.0" y="256.0" text-anchor="middle" font-family="Georgia" font-size="16" font-weight="normal"><tspan x="375.0" dy="0">reg</tspan></text><circle cx="500" cy="250" r="22" fill="#fee2e2" stroke="#1f2937" stroke-width="2"/><text x="500" y="254.66666666666669" text-anchor="middle" font-family="Georgia" font-size="20" font-weight="bold">+</text><rect x="590" y="228" width="70" height="44" rx="10" fill="#ddd6fe" stroke="#1f2937" stroke-width="2"/><text x="625.0" y="256.0" text-anchor="middle" font-family="Georgia" font-size="16" font-weight="normal"><tspan x="625.0" dy="0">reg</tspan></text><line x1="150" y1="250" x2="226" y2="250" stroke="#7c3aed" stroke-width="2.5" marker-end="url(#arrow)"/><line x1="274" y1="250" x2="340" y2="250" stroke="#7c3aed" stroke-width="2.5" marker-end="url(#arrow)"/><line x1="410" y1="250" x2="478" y2="250" stroke="#7c3aed" stroke-width="2.5" marker-end="url(#arrow)"/><line x1="522" y1="250" x2="590" y2="250" stroke="#7c3aed" stroke-width="2.5" marker-end="url(#arrow)"/><rect x="60" y="330" width="90" height="40" rx="10" fill="#eef2ff" stroke="#1f2937" stroke-width="2"/><text x="105.0" y="356.0" text-anchor="middle" font-family="Georgia" font-size="16" font-weight="normal"><tspan x="105.0" dy="0">x2[m]</tspan></text><circle cx="250" cy="350" r="24" fill="#fef3c7" stroke="#1f2937" stroke-width="2"/><text x="250" y="354.6666666666667" text-anchor="middle" font-family="Georgia" font-size="20" font-weight="bold">×</text><text x="268" y="316" text-anchor="start" font-family="Georgia" font-size="14" fill="#16a34a">E2[k]</text><rect x="340" y="328" width="70" height="44" rx="10" fill="#ddd6fe" stroke="#1f2937" stroke-width="2"/><text x="375.0" y="356.0" text-anchor="middle" font-family="Georgia" font-size="16" font-weight="normal"><tspan x="375.0" dy="0">reg</tspan></text><circle cx="500" cy="350" r="22" fill="#fee2e2" stroke="#1f2937" stroke-width="2"/><text x="500" y="354.6666666666667" text-anchor="middle" font-family="Georgia" font-size="20" font-weight="bold">+</text><rect x="590" y="328" width="70" height="44" rx="10" fill="#ddd6fe" stroke="#1f2937" stroke-width="2"/><text x="625.0" y="356.0" text-anchor="middle" font-family="Georgia" font-size="16" font-weight="normal"><tspan x="625.0" dy="0">reg</tspan></text><line x1="150" y1="350" x2="226" y2="350" stroke="#7c3aed" stroke-width="2.5" marker-end="url(#arrow)"/><line x1="274" y1="350" x2="340" y2="350" stroke="#7c3aed" stroke-width="2.5" marker-end="url(#arrow)"/><line x1="410" y1="350" x2="478" y2="350" stroke="#7c3aed" stroke-width="2.5" marker-end="url(#arrow)"/><line x1="522" y1="350" x2="590" y2="350" stroke="#7c3aed" stroke-width="2.5" marker-end="url(#arrow)"/><text x="800" y="110" text-anchor="middle" font-family="Georgia" font-size="14" fill="#111827">registered branch outputs</text><rect x="760" y="200" width="110" height="44" rx="10" fill="#c4b5fd" stroke="#1f2937" stroke-width="2"/><text x="815.0" y="228.0" text-anchor="middle" font-family="Georgia" font-size="16" font-weight="normal"><tspan x="815.0" dy="0">breg</tspan></text><rect x="980" y="200" width="110" height="44" rx="10" fill="#c4b5fd" stroke="#1f2937" stroke-width="2"/><text x="1035.0" y="228.0" text-anchor="middle" font-family="Georgia" font-size="16" font-weight="normal"><tspan x="1035.0" dy="0">rreg</tspan></text><circle cx="1220" cy="180" r="22" fill="#fee2e2" stroke="#1f2937" stroke-width="2"/><text x="1220" y="184.66666666666666" text-anchor="middle" font-family="Georgia" font-size="20" font-weight="bold">+</text><circle cx="1220" cy="250" r="22" fill="#fee2e2" stroke="#1f2937" stroke-width="2"/><text x="1220" y="254.66666666666669" text-anchor="middle" font-family="Georgia" font-size="20" font-weight="bold">+</text><circle cx="1220" cy="320" r="22" fill="#fee2e2" stroke="#1f2937" stroke-width="2"/><text x="1220" y="324.6666666666667" text-anchor="middle" font-family="Georgia" font-size="20" font-weight="bold">+</text><rect x="1310" y="158" width="120" height="44" rx="10" fill="#ede9fe" stroke="#1f2937" stroke-width="2"/><text x="1370.0" y="186.0" text-anchor="middle" font-family="Georgia" font-size="16" font-weight="normal"><tspan x="1370.0" dy="0">y0 / y1 / y2</tspan></text><rect x="1310" y="238" width="120" height="44" rx="10" fill="#ede9fe" stroke="#1f2937" stroke-width="2"/><text x="1370.0" y="266.0" text-anchor="middle" font-family="Georgia" font-size="16" font-weight="normal"><tspan x="1370.0" dy="0">round / sat</tspan></text><rect x="1310" y="318" width="120" height="44" rx="10" fill="#eef2ff" stroke="#1f2937" stroke-width="2"/><text x="1370.0" y="346.0" text-anchor="middle" font-family="Georgia" font-size="16" font-weight="normal"><tspan x="1370.0" dy="0">3-lane out</tspan></text><line x1="660" y1="150" x2="760" y2="222" stroke="#7c3aed" stroke-width="2.5" marker-end="url(#arrow)"/><line x1="660" y1="250" x2="760" y2="222" stroke="#7c3aed" stroke-width="2.5" marker-end="url(#arrow)"/><line x1="660" y1="350" x2="760" y2="222" stroke="#7c3aed" stroke-width="2.5" marker-end="url(#arrow)"/><line x1="870" y1="222" x2="980" y2="222" stroke="#7c3aed" stroke-width="2.5" marker-end="url(#arrow)"/><line x1="1090" y1="222" x2="1198" y2="180" stroke="#7c3aed" stroke-width="2.5" marker-end="url(#arrow)"/><line x1="1090" y1="222" x2="1198" y2="250" stroke="#7c3aed" stroke-width="2.5" marker-end="url(#arrow)"/><line x1="1090" y1="222" x2="1198" y2="320" stroke="#7c3aed" stroke-width="2.5" marker-end="url(#arrow)"/><line x1="1242" y1="180" x2="1310" y2="180" stroke="#7c3aed" stroke-width="2.5" marker-end="url(#arrow)"/><line x1="1242" y1="250" x2="1310" y2="260" stroke="#7c3aed" stroke-width="2.5" marker-end="url(#arrow)"/><line x1="1242" y1="320" x2="1310" y2="340" stroke="#7c3aed" stroke-width="2.5" marker-end="url(#arrow)"/><text x="40" y="490" font-family="Consolas" font-size="15" fill="#374151">critical path: one branch stage or one registered recombine stage</text><text x="40" y="514" font-family="Consolas" font-size="15" fill="#374151">L3 pipeline: branch outputs are registered before the final recombination network</text>
</svg>
