<svg xmlns="http://www.w3.org/2000/svg" width="1420" height="420" viewBox="0 0 1420 420">
  <defs>
    <marker id="arrow" viewBox="0 0 10 10" refX="9" refY="5" markerWidth="8" markerHeight="8" orient="auto-start-reverse">
      <path d="M 0 0 L 10 5 L 0 10 z" fill="#7c3aed"/>
    </marker>
  </defs>
  <rect width="1420" height="420" fill="#fffdf8"/>
  <text x="40" y="40" text-anchor="start" font-family="Georgia" font-size="28" fill="#111827">Pipelined Systolic FIR</text><text x="40" y="66" font-family="Consolas" font-size="15" fill="#374151">mult=131 add=260 reg=391 latency=132 spc=1</text><rect x="60" y="110" width="90" height="40" rx="10" fill="#eef2ff" stroke="#1f2937" stroke-width="2"/><text x="105.0" y="136.0" text-anchor="middle" font-family="Georgia" font-size="16" font-weight="normal"><tspan x="105.0" dy="0">x[n-k]</tspan></text><rect x="60" y="180" width="120" height="40" rx="10" fill="#eef2ff" stroke="#1f2937" stroke-width="2"/><text x="120.0" y="206.0" text-anchor="middle" font-family="Georgia" font-size="16" font-weight="normal"><tspan x="120.0" dy="0">x[n-(N-1-k)]</tspan></text><circle cx="240" cy="210" r="22" fill="#fee2e2" stroke="#1f2937" stroke-width="2"/><text x="240" y="214.66666666666666" text-anchor="middle" font-family="Georgia" font-size="20" font-weight="bold">+</text><rect x="300" y="188" width="70" height="44" rx="10" fill="#ddd6fe" stroke="#1f2937" stroke-width="2"/><text x="335.0" y="216.0" text-anchor="middle" font-family="Georgia" font-size="16" font-weight="normal"><tspan x="335.0" dy="0">reg</tspan></text><circle cx="450" cy="210" r="24" fill="#fef3c7" stroke="#1f2937" stroke-width="2"/><text x="450" y="214.66666666666666" text-anchor="middle" font-family="Georgia" font-size="20" font-weight="bold">×</text><text x="470" y="170" text-anchor="start" font-family="Georgia" font-size="14" fill="#16a34a">h[k]</text><rect x="520" y="188" width="70" height="44" rx="10" fill="#ddd6fe" stroke="#1f2937" stroke-width="2"/><text x="555.0" y="216.0" text-anchor="middle" font-family="Georgia" font-size="16" font-weight="normal"><tspan x="555.0" dy="0">reg</tspan></text><circle cx="690" cy="210" r="22" fill="#fee2e2" stroke="#1f2937" stroke-width="2"/><text x="690" y="214.66666666666666" text-anchor="middle" font-family="Georgia" font-size="20" font-weight="bold">+</text><rect x="760" y="188" width="70" height="44" rx="10" fill="#ddd6fe" stroke="#1f2937" stroke-width="2"/><text x="795.0" y="216.0" text-anchor="middle" font-family="Georgia" font-size="16" font-weight="normal"><tspan x="795.0" dy="0">reg</tspan></text><text x="915" y="176" text-anchor="middle" font-family="Georgia" font-size="20" fill="#111827">⋯  systolic cells  ⋯</text><circle cx="1120" cy="210" r="22" fill="#fee2e2" stroke="#1f2937" stroke-width="2"/><text x="1120" y="214.66666666666666" text-anchor="middle" font-family="Georgia" font-size="20" font-weight="bold">+</text><rect x="1190" y="188" width="90" height="44" rx="10" fill="#ede9fe" stroke="#1f2937" stroke-width="2"/><text x="1235.0" y="216.0" text-anchor="middle" font-family="Georgia" font-size="16" font-weight="normal"><tspan x="1235.0" dy="0">round / sat</tspan></text><rect x="1310" y="188" width="70" height="44" rx="10" fill="#eef2ff" stroke="#1f2937" stroke-width="2"/><text x="1345.0" y="216.0" text-anchor="middle" font-family="Georgia" font-size="16" font-weight="normal"><tspan x="1345.0" dy="0">y[n]</tspan></text><line x1="150" y1="130" x2="218" y2="210" stroke="#6b7280" stroke-width="1.8"/><line x1="180" y1="200" x2="218" y2="210" stroke="#6b7280" stroke-width="1.8"/><line x1="262" y1="210" x2="300" y2="210" stroke="#7c3aed" stroke-width="2.5" marker-end="url(#arrow)"/><line x1="370" y1="210" x2="426" y2="210" stroke="#7c3aed" stroke-width="2.5" marker-end="url(#arrow)"/><line x1="474" y1="210" x2="520" y2="210" stroke="#7c3aed" stroke-width="2.5" marker-end="url(#arrow)"/><rect x="620" y="110" width="90" height="40" rx="10" fill="#eef2ff" stroke="#1f2937" stroke-width="2"/><text x="665.0" y="136.0" text-anchor="middle" font-family="Georgia" font-size="16" font-weight="normal"><tspan x="665.0" dy="0">acc[k-1]</tspan></text><line x1="665" y1="150" x2="665" y2="188" stroke="#6b7280" stroke-width="1.8"/><line x1="665" y1="188" x2="668" y2="188" stroke="#6b7280" stroke-width="1.8"/><line x1="590" y1="210" x2="668" y2="210" stroke="#7c3aed" stroke-width="2.5" marker-end="url(#arrow)"/><line x1="712" y1="210" x2="760" y2="210" stroke="#7c3aed" stroke-width="2.5" marker-end="url(#arrow)"/><line x1="830" y1="210" x2="1098" y2="210" stroke="#7c3aed" stroke-width="2.5" marker-end="url(#arrow)"/><line x1="1142" y1="210" x2="1190" y2="210" stroke="#7c3aed" stroke-width="2.5" marker-end="url(#arrow)"/><line x1="1280" y1="210" x2="1310" y2="210" stroke="#7c3aed" stroke-width="2.5" marker-end="url(#arrow)"/><text x="40" y="378" font-family="Consolas" font-size="15" fill="#374151">critical path: one pre-add, one multiply, one local accumulate</text><text x="40" y="402" font-family="Consolas" font-size="15" fill="#374151">systolic pipeline: the long folded path is split into repeated DSP-friendly MAC cells</text>
</svg>
