<svg xmlns="http://www.w3.org/2000/svg" width="1380" height="470" viewBox="0 0 1380 470">
  <defs>
    <marker id="arrow" viewBox="0 0 10 10" refX="9" refY="5" markerWidth="8" markerHeight="8" orient="auto-start-reverse">
      <path d="M 0 0 L 10 5 L 0 10 z" fill="#7c3aed"/>
    </marker>
  </defs>
  <rect width="1380" height="470" fill="#fffdf8"/>
  <text x="40" y="40" text-anchor="start" font-family="Georgia" font-size="28" fill="#111827">Symmetry-Folded FIR</text><text x="40" y="66" font-family="Consolas" font-size="15" fill="#374151">mult=131 add=260 reg=260 latency=1 spc=1</text><rect x="130" y="88" width="80" height="40" rx="10" fill="#eef2ff" stroke="#1f2937" stroke-width="2"/><text x="170.0" y="114.0" text-anchor="middle" font-family="Georgia" font-size="16" font-weight="normal"><tspan x="170.0" dy="0">x[n]</tspan></text><rect x="230" y="88" width="110" height="40" rx="10" fill="#eef2ff" stroke="#1f2937" stroke-width="2"/><text x="285.0" y="114.0" text-anchor="middle" font-family="Georgia" font-size="16" font-weight="normal"><tspan x="285.0" dy="0">x[n-(N-1)]</tspan></text><rect x="350" y="88" width="80" height="40" rx="10" fill="#eef2ff" stroke="#1f2937" stroke-width="2"/><text x="390.0" y="114.0" text-anchor="middle" font-family="Georgia" font-size="16" font-weight="normal"><tspan x="390.0" dy="0">x[n-1]</tspan></text><rect x="450" y="88" width="110" height="40" rx="10" fill="#eef2ff" stroke="#1f2937" stroke-width="2"/><text x="505.0" y="114.0" text-anchor="middle" font-family="Georgia" font-size="16" font-weight="normal"><tspan x="505.0" dy="0">x[n-(N-2)]</tspan></text><text x="660" y="98" text-anchor="middle" font-family="Georgia" font-size="28" fill="#111827">⋯</text><text x="660" y="142" text-anchor="middle" font-family="Georgia" font-size="28" fill="#111827">⋯</text><rect x="825" y="110" width="110" height="40" rx="10" fill="#eef2ff" stroke="#1f2937" stroke-width="2"/><text x="880.0" y="136.0" text-anchor="middle" font-family="Georgia" font-size="16" font-weight="normal"><tspan x="880.0" dy="0">x[n-M]</tspan></text><circle cx="220" cy="176" r="22" fill="#fee2e2" stroke="#1f2937" stroke-width="2"/><text x="220" y="180.66666666666666" text-anchor="middle" font-family="Georgia" font-size="20" font-weight="bold">+</text><circle cx="440" cy="176" r="22" fill="#fee2e2" stroke="#1f2937" stroke-width="2"/><text x="440" y="180.66666666666666" text-anchor="middle" font-family="Georgia" font-size="20" font-weight="bold">+</text><circle cx="660" cy="176" r="22" fill="#fee2e2" stroke="#1f2937" stroke-width="2"/><text x="660" y="180.66666666666666" text-anchor="middle" font-family="Georgia" font-size="20" font-weight="bold">+</text><rect x="825" y="154" width="110" height="44" rx="10" fill="#e0f2fe" stroke="#1f2937" stroke-width="2"/><text x="880.0" y="182.0" text-anchor="middle" font-family="Georgia" font-size="16" font-weight="normal"><tspan x="880.0" dy="0">center tap</tspan></text><line x1="170" y1="128" x2="170" y2="176" stroke="#6b7280" stroke-width="1.8"/><line x1="285" y1="128" x2="285" y2="176" stroke="#6b7280" stroke-width="1.8"/><line x1="170" y1="176" x2="198" y2="176" stroke="#6b7280" stroke-width="1.8"/><line x1="285" y1="176" x2="242" y2="176" stroke="#6b7280" stroke-width="1.8"/><line x1="390" y1="128" x2="390" y2="176" stroke="#6b7280" stroke-width="1.8"/><line x1="505" y1="128" x2="505" y2="176" stroke="#6b7280" stroke-width="1.8"/><line x1="390" y1="176" x2="418" y2="176" stroke="#6b7280" stroke-width="1.8"/><line x1="505" y1="176" x2="462" y2="176" stroke="#6b7280" stroke-width="1.8"/><text x="660" y="120" text-anchor="middle" font-family="Georgia" font-size="14" fill="#111827">omitted mirror pairs</text><line x1="660" y1="106" x2="660" y2="154" stroke="#6b7280" stroke-width="1.8" stroke-dasharray="7 5"/><line x1="880" y1="150" x2="880" y2="154" stroke="#6b7280" stroke-width="1.8"/><circle cx="220" cy="258" r="24" fill="#fef3c7" stroke="#1f2937" stroke-width="2"/><text x="220" y="262.6666666666667" text-anchor="middle" font-family="Georgia" font-size="20" font-weight="bold">×</text><line x1="220" y1="198" x2="220" y2="234" stroke="#6b7280" stroke-width="1.8"/><text x="238" y="214" text-anchor="start" font-family="Georgia" font-size="14" fill="#16a34a">h[0]</text><circle cx="440" cy="258" r="24" fill="#fef3c7" stroke="#1f2937" stroke-width="2"/><text x="440" y="262.6666666666667" text-anchor="middle" font-family="Georgia" font-size="20" font-weight="bold">×</text><line x1="440" y1="198" x2="440" y2="234" stroke="#6b7280" stroke-width="1.8"/><text x="458" y="214" text-anchor="start" font-family="Georgia" font-size="14" fill="#16a34a">h[1]</text><circle cx="660" cy="258" r="24" fill="#fef3c7" stroke="#1f2937" stroke-width="2"/><text x="660" y="262.6666666666667" text-anchor="middle" font-family="Georgia" font-size="20" font-weight="bold">×</text><line x1="660" y1="198" x2="660" y2="234" stroke="#6b7280" stroke-width="1.8"/><text x="678" y="214" text-anchor="start" font-family="Georgia" font-size="14" fill="#16a34a">⋯</text><circle cx="880" cy="258" r="24" fill="#fef3c7" stroke="#1f2937" stroke-width="2"/><text x="880" y="262.6666666666667" text-anchor="middle" font-family="Georgia" font-size="20" font-weight="bold">×</text><line x1="880" y1="198" x2="880" y2="234" stroke="#6b7280" stroke-width="1.8"/><text x="898" y="214" text-anchor="start" font-family="Georgia" font-size="14" fill="#16a34a">h[M]</text><circle cx="440" cy="348" r="22" fill="#fee2e2" stroke="#1f2937" stroke-width="2"/><text x="440" y="352.6666666666667" text-anchor="middle" font-family="Georgia" font-size="20" font-weight="bold">+</text><circle cx="660" cy="348" r="22" fill="#fee2e2" stroke="#1f2937" stroke-width="2"/><text x="660" y="352.6666666666667" text-anchor="middle" font-family="Georgia" font-size="20" font-weight="bold">+</text><circle cx="880" cy="348" r="22" fill="#fee2e2" stroke="#1f2937" stroke-width="2"/><text x="880" y="352.6666666666667" text-anchor="middle" font-family="Georgia" font-size="20" font-weight="bold">+</text><line x1="220" y1="282" x2="220" y2="348" stroke="#6b7280" stroke-width="1.8"/><polyline fill="none" points="220,348 418,348" stroke="#7c3aed" stroke-width="2.5" marker-end="url(#arrow)"/><line x1="440" y1="282" x2="440" y2="326" stroke="#6b7280" stroke-width="1.8"/><polyline fill="none" points="462,348 638,348" stroke="#7c3aed" stroke-width="2.5" marker-end="url(#arrow)"/><line x1="660" y1="282" x2="660" y2="326" stroke="#6b7280" stroke-width="1.8"/><polyline fill="none" points="682,348 858,348" stroke="#7c3aed" stroke-width="2.5" marker-end="url(#arrow)"/><line x1="880" y1="282" x2="880" y2="326" stroke="#6b7280" stroke-width="1.8"/><rect x="980" y="322" width="120" height="52" rx="10" fill="#ede9fe" stroke="#1f2937" stroke-width="2"/><text x="1040.0" y="354.0" text-anchor="middle" font-family="Georgia" font-size="16" font-weight="normal"><tspan x="1040.0" dy="0">round / sat</tspan></text><rect x="1165" y="322" width="90" height="52" rx="10" fill="#eef2ff" stroke="#1f2937" stroke-width="2"/><text x="1210.0" y="354.0" text-anchor="middle" font-family="Georgia" font-size="16" font-weight="normal"><tspan x="1210.0" dy="0">y[n]</tspan></text><line x1="902" y1="348" x2="980" y2="348" stroke="#7c3aed" stroke-width="2.5" marker-end="url(#arrow)"/><line x1="1100" y1="348" x2="1165" y2="348" stroke="#7c3aed" stroke-width="2.5" marker-end="url(#arrow)"/><text x="40" y="420" font-family="Consolas" font-size="15" fill="#374151">critical path: pre-add plus folded accumulation</text><text x="40" y="444" font-family="Consolas" font-size="15" fill="#374151">symmetry folded: mirrored samples share one multiplier after pre-add</text>
</svg>
